<svg width="40" height="40" viewBox="0 0 40 40" fill="none" xmlns="http://www.w3.org/2000/svg">
<path d="M15.9845 34.9862C13.1066 36.7848 10 37.3205 10 37.3205C10 37.3205 8.91055 34.3623 9.02938 30.9706L5.01383 24.0155C2.01719 22.4226 0 20 0 20C0 20 2.01719 17.5774 5.01383 15.9844L9.0293 9.02935C8.91055 5.63771 10 2.67943 10 2.67943C10 2.67943 13.1066 3.21505 15.9845 5.01381H20V34.9862H15.9845Z" fill="#24B383"/>
<path d="M34.9861 24.0156L30.9707 30.9706C31.0894 34.3623 30 37.3205 30 37.3205C30 37.3205 26.8933 36.7849 24.0154 34.9861H19.9999V5.01374H24.0154C26.8932 3.21507 29.9999 2.67937 29.9999 2.67937C29.9999 2.67937 31.0893 5.63765 30.9705 9.0293L34.9861 15.9844C37.9828 17.5773 40 20 40 20C40 20 37.9828 22.4226 34.9861 24.0156Z" fill="#19805D"/>
<path d="M30.6891 20C30.9121 20.1044 31.1323 20.2184 31.3487 20.3434C36.1316 23.1048 37.3205 30 37.3205 30C37.3205 30 30.7547 32.4179 25.9718 29.6565C25.7554 29.5316 25.5466 29.3979 25.3446 29.2571L22.6318 27.1067L20 20L25.7422 18.1249L30.6891 20Z" fill="#FF66CC"/>
<path d="M25.377 10C25.377 10.2499 25.3656 10.4976 25.3446 10.7429L24.5703 15.5894L20 20L18.4375 11.9141L20 9.53674e-06C20.0002 0.000165939 25.377 4.47728 25.377 10Z" fill="#FF66CC"/>
<path d="M31.3487 19.6566C31.1323 19.7815 30.9122 19.8956 30.6892 20H20L25.3446 10.7429C25.5466 10.602 25.7554 10.4684 25.9718 10.3434C30.7547 7.58196 37.3205 10 37.3205 10C37.3205 10 36.1316 16.8952 31.3487 19.6566Z" fill="#FF99DD"/>
<path d="M25.3446 29.2571C25.3656 29.5024 25.3769 29.7502 25.3769 30C25.3769 35.5228 20 40 20 40L18.164 30L20 20L25.3446 29.2571Z" fill="#FF99DD"/>
<path d="M14.6231 30C14.6231 29.7501 14.6344 29.5024 14.6554 29.2571L15.586 24.0234L20 20V40C20 40 14.6231 35.5228 14.6231 30Z" fill="#FFCCEE"/>
<path d="M14.6554 29.2571C14.4534 29.3979 14.2446 29.5316 14.0282 29.6566C9.2453 32.4179 2.67944 30 2.67944 30C2.67944 30 3.86827 23.1048 8.65123 20.3434C8.86764 20.2185 9.08787 20.1044 9.31084 20L12.9687 17.9296L20 20L14.6554 29.2571Z" fill="#FF99DD"/>
<path d="M8.65129 19.6566C3.86839 16.8952 2.67957 10 2.67957 10C2.67957 10 9.24535 7.58205 14.0283 10.3435C14.2447 10.4684 14.4536 10.602 14.6555 10.7429L18.5548 13.214L20 20H9.3109C9.08793 19.8956 8.86777 19.7815 8.65129 19.6566Z" fill="#FFCCEE"/>
<path d="M14.6554 10.7429C14.6344 10.4976 14.623 10.2499 14.623 10C14.623 4.4772 20 9.53674e-06 20 9.53674e-06V20L14.6554 10.7429Z" fill="#FF99DD"/>
<path d="M24.3094 22.488C23.3902 24.08 21.7181 24.9708 20 24.9737L18.4375 20L20 15.0251C20.0028 15.0251 20.0056 15.0249 20.0084 15.0249C20.852 15.0249 21.7064 15.2393 22.488 15.6906C24.8642 17.0625 25.6813 20.1118 24.3094 22.488Z" fill="#F2E9E6"/>
<path d="M17.5121 24.3094C15.1359 22.9374 14.3188 19.8882 15.6907 17.512C16.61 15.9199 18.2819 15.028 20.0001 15.0251V24.9737C19.1538 24.9752 18.2963 24.7622 17.5121 24.3094Z" fill="#FFF5F5"/>
<path d="M22.2796 21.3161C21.7934 22.1581 20.9088 22.63 20 22.6316L18.4375 20.0003L20 17.3691C20.4477 17.3683 20.9013 17.4809 21.3162 17.7203C22.5731 18.446 23.0053 20.0591 22.2796 21.3161Z" fill="#FF66CC"/>
<path d="M19.9955 22.6317C19.5492 22.6317 19.0973 22.5184 18.6838 22.2796C17.4268 21.5539 16.9946 19.9408 17.7203 18.6838C18.2065 17.8417 19.091 17.3706 19.9999 17.3691V22.6317C19.9985 22.6317 19.997 22.6317 19.9955 22.6317Z" fill="#FF99DD"/>
</svg>
