<svg width="43" height="31" viewBox="0 0 43 31" fill="none" xmlns="http://www.w3.org/2000/svg">
<path d="M0.5 0V30.8H42.5V0H0.5ZM40.0294 28.3294H2.97059V2.47059H40.0294V28.3294Z" fill="#383838"/>
<path d="M23.5588 5.18823H26.0294V25.6118H23.5588V5.18823Z" fill="#383838"/>
<path d="M5.68823 23.0589H20.1824V25.5295H5.68823V23.0589Z" fill="#383838"/>
<path d="M28.7471 17.7883H34.6765V20.2589H28.7471V17.7883Z" fill="#383838"/>
<path d="M28.7471 23.0589H37.3118V25.5295H28.7471V23.0589Z" fill="#383838"/>
<path d="M37.2295 5.27057H28.8295V13.0118H37.2295V5.27057ZM34.7589 10.5412H31.3001V7.74116H34.7589V10.5412Z" fill="#383838"/>
<path d="M13.3029 19.2365L19.3365 13.2314C20.2537 12.3141 20.7588 11.0945 20.7588 9.79723C20.7588 5.9063 16.4515 3.677 13.29 5.70116C10.1211 3.67222 5.82117 5.91346 5.82117 9.79723C5.82117 11.0945 6.32632 12.3142 7.24752 13.2354L13.3029 19.2365ZM8.99052 8.10998C9.92169 7.17882 11.4327 7.17783 12.3645 8.10965L13.2896 9.03546L14.2151 8.10998C15.145 7.18005 16.6557 7.17635 17.5895 8.10998C18.5277 9.04823 18.5149 10.5591 17.5915 11.4823L13.2991 15.7544L8.99052 11.4844C8.0582 10.5522 8.05796 9.04247 8.99052 8.10998Z" fill="#383838"/>
</svg>
