<svg width="49" height="49" viewBox="0 0 49 49" fill="none" xmlns="http://www.w3.org/2000/svg">
<g clip-path="url(#clip0)">
<path d="M34.4363 24.1071C36.7717 20.7728 38.0061 16.8587 38.0061 12.788V3.71186C38.0061 3.26363 37.6947 2.87521 37.2573 2.77764L24.8996 0.0228024C24.7624 -0.00747872 24.6204 -0.00747872 24.4832 0.0228024L12.1259 2.77764C11.6881 2.87521 11.3771 3.26363 11.3771 3.71186V12.788C11.3771 16.8587 12.6115 20.7728 14.9469 24.1068C17.2823 27.441 20.5388 29.9387 24.3647 31.3301C24.4701 31.3682 24.5811 31.3877 24.6914 31.3877C24.8021 31.3877 24.9131 31.3682 25.0185 31.3301C28.8444 29.939 32.1009 27.441 34.4363 24.1071ZM24.6914 29.4086C21.3784 28.1312 18.5563 25.924 16.5148 23.0088C14.4059 19.9982 13.2911 16.464 13.2911 12.788V4.47899L24.6914 1.93762L36.0921 4.47899V12.788C36.0921 16.4636 34.9773 19.9979 32.8684 23.0088C30.8265 25.924 28.0044 28.1312 24.6914 29.4086Z" fill="#383838"/>
<path d="M34.464 6.55116C34.464 6.10255 34.1529 5.7145 33.7152 5.61693L24.9 3.65165C24.7628 3.62137 24.6204 3.62137 24.4832 3.65165L15.6676 5.61693C15.1517 5.73207 14.8269 6.24349 14.942 6.75939C15.0568 7.27529 15.5686 7.60015 16.0841 7.48501L24.6914 5.56646L32.5499 7.31828V12.7879C32.5499 15.7331 31.6568 18.5645 29.9674 20.9769C28.61 22.9149 26.7924 24.4851 24.6914 25.5404C22.5904 24.4854 20.7732 22.9149 19.4158 20.9769C17.9544 18.8905 17.0766 16.4516 16.8778 13.9244C16.8609 13.7136 16.849 13.5005 16.8419 13.2904C16.8236 12.7618 16.3776 12.3487 15.8523 12.3666C15.3241 12.3849 14.9106 12.8279 14.9289 13.3562C14.9372 13.5943 14.9506 13.8362 14.9693 14.0747C15.1951 16.9424 16.1906 19.7089 17.8479 22.0749C19.4849 24.4118 21.7123 26.278 24.2895 27.4713C24.417 27.5304 24.5546 27.5599 24.6918 27.5599C24.829 27.5599 24.9662 27.5304 25.0937 27.4713C27.6713 26.2776 29.8986 24.4118 31.5353 22.0749C33.4512 19.3395 34.4644 16.1278 34.4644 12.7879V6.55116H34.464Z" fill="#383838"/>
<path d="M21.965 17.756C22.1325 17.9541 22.3729 18.0756 22.6319 18.0928C22.6532 18.0943 22.6745 18.0951 22.6959 18.0951C22.9321 18.0951 23.1613 18.0076 23.3377 17.848L30.2762 11.5704C30.668 11.216 30.6983 10.6108 30.3439 10.2186C29.9891 9.82682 29.3839 9.79654 28.9921 10.1509L22.7874 15.7642L21.0166 13.6695C20.6756 13.2662 20.0715 13.2153 19.6681 13.5566C19.2644 13.8979 19.2139 14.5017 19.5548 14.9055L21.965 17.756Z" fill="#383838"/>
<path d="M16.6325 31.6733C16.1282 31.0101 15.3951 30.5884 14.5685 30.4852C13.742 30.3824 12.9277 30.6109 12.2758 31.1294C11.9707 31.372 11.7243 31.6628 11.5385 31.9832L11.2574 31.6169C11.0077 31.292 10.8705 30.8875 10.8705 30.4778V21.8439C10.8705 20.0801 9.43531 18.645 7.67153 18.645C6.01243 18.645 4.64342 19.8906 4.48678 21.5419L3.46246 32.3447C3.37236 33.2909 3.63929 34.2296 4.21687 34.9923L12.3516 45.5847V48.0431C12.3516 48.5717 12.7801 49.0001 13.3087 49.0001C13.8369 49.0001 14.2657 48.5717 14.2657 48.0431V45.2594C14.2657 45.0486 14.1958 44.8437 14.0676 44.6766L5.73878 33.8315C5.45503 33.4569 5.32344 32.993 5.36793 32.5253L6.39262 21.7228C6.45543 21.0592 7.00535 20.559 7.67153 20.559C8.38034 20.559 8.95642 21.1355 8.95642 21.8439V30.4778C8.95642 31.307 9.23456 32.1253 9.73962 32.7825L11.743 35.3915C11.746 35.3956 11.749 35.3998 11.752 35.4039L13.3685 37.509C13.6907 37.928 14.2915 38.0069 14.7106 37.6851C15.1297 37.3632 15.2085 36.7624 14.8867 36.343L13.2649 34.2311C12.8892 33.7339 12.979 33.0162 13.4679 32.6274C13.7135 32.4318 14.0205 32.3459 14.3319 32.3844C14.6433 32.4232 14.9196 32.5825 15.1095 32.8322L18.9731 37.9097C19.7335 38.909 20.1522 40.1509 20.1522 41.4066V48.0431C20.1522 48.5717 20.5806 49.0001 21.1092 49.0001C21.6379 49.0001 22.0663 48.5717 22.0663 48.0431V41.4066C22.0663 39.7348 21.5089 38.0813 20.4965 36.7508L16.6325 31.6733Z" fill="#383838"/>
<path d="M45.6523 32.3447L44.6276 21.5419C44.471 19.8906 43.1016 18.645 41.4428 18.645C39.6791 18.645 38.2439 20.0801 38.2439 21.8439V30.4778C38.2439 30.8875 38.1063 31.292 37.857 31.6169L37.5755 31.9832C37.39 31.6632 37.1437 31.3724 36.8386 31.1294C36.1866 30.6109 35.3724 30.3824 34.5459 30.4852C33.7193 30.5884 32.9862 31.0101 32.4819 31.6733L28.6182 36.7508C27.6059 38.0813 27.0481 39.7348 27.0481 41.407V48.0431C27.0481 48.5717 27.4769 49.0001 28.0051 49.0001C28.5337 49.0001 28.9622 48.5717 28.9622 48.0431V41.4066C28.9622 40.1509 29.3809 38.909 30.1413 37.9097L34.0049 32.8322C34.1952 32.5825 34.4715 32.4236 34.7829 32.3844C35.0943 32.3459 35.4012 32.4318 35.6468 32.6274C36.1354 33.0162 36.2255 33.7339 35.8494 34.2311L34.2281 36.343C33.9062 36.7624 33.9851 37.3632 34.4042 37.6851C34.8232 38.0069 35.424 37.928 35.7463 37.509L37.3624 35.4039C37.3654 35.4001 37.368 35.3964 37.371 35.3927L39.3751 32.7829C39.8798 32.1253 40.158 31.307 40.158 30.4778V21.8439C40.158 21.1355 40.7344 20.559 41.4428 20.559C42.109 20.559 42.659 21.0592 42.7221 21.7228L43.7468 32.5253C43.7909 32.9933 43.6594 33.4569 43.3793 33.8266L35.0468 44.6766C34.9186 44.8437 34.849 45.049 34.849 45.2598V48.0431C34.849 48.5717 35.2775 49.0001 35.8061 49.0001C36.3347 49.0001 36.7631 48.5717 36.7631 48.0431V45.5847L44.9013 34.9874C45.4751 34.2296 45.742 33.2909 45.6523 32.3447Z" fill="#383838"/>
<path d="M15.3446 10.7281C15.6815 10.9528 16.1375 10.9386 16.4583 10.6915C16.76 10.459 16.9017 10.053 16.8 9.68435C16.6912 9.2892 16.3376 8.9991 15.9267 8.97667C15.52 8.95461 15.136 9.20284 14.9869 9.5808C14.8231 9.99614 14.9745 10.4791 15.3446 10.7281Z" fill="#383838"/>
</g>
<defs>
<clipPath id="clip0">
<rect width="49" height="49" fill="white"/>
</clipPath>
</defs>
</svg>
