<svg width="60" height="60" viewBox="0 0 60 60" fill="none" xmlns="http://www.w3.org/2000/svg">
<path d="M54.6569 18.1228C54.1714 18.1228 53.778 18.5163 53.778 19.0017V34.0802C53.778 35.6346 53.2701 37.0723 52.4129 38.2378L40.9122 25.6629L52.4146 13.0848C52.9839 13.8606 53.3939 14.7486 53.6062 15.69C53.713 16.1636 54.1827 16.4609 54.6569 16.3541C55.1305 16.2473 55.4278 15.777 55.321 15.3034C54.8892 13.3879 53.8063 11.6488 52.2717 10.4067C50.9158 9.30914 49.2525 8.64129 47.5203 8.4866C47.3383 3.77637 43.4517 0 38.6977 0H13.295C8.42551 0 4.46387 3.96164 4.46387 8.83125V51.1686C4.46387 56.0382 8.42551 59.9999 13.295 59.9999H38.6977C43.5673 59.9999 47.529 56.0382 47.529 51.1686V42.8348C52.0104 42.4359 55.5358 38.6631 55.5358 34.0804V19.0018C55.5358 18.5163 55.1424 18.1228 54.6569 18.1228ZM41.6889 41.1138C41.4559 41.1138 41.2324 41.2064 41.0675 41.3712L36.3105 46.1271C35.9279 46.5101 35.4189 46.721 34.8773 46.721C34.3354 46.721 33.826 46.51 33.4429 46.1268L28.6875 41.3713C28.5226 41.2064 28.2991 41.1138 28.0659 41.1138H23.0116C21.3209 41.1138 19.768 40.5142 18.5536 39.5168L30.0332 26.9647L31.4866 28.5539C32.3553 29.5029 33.5911 30.0471 34.8775 30.0471H34.8788C36.1648 30.0468 37.4001 29.5024 38.2675 28.5538L39.7211 26.9651L51.2009 39.5172C49.9865 40.5143 48.4337 41.1138 46.7432 41.1138H41.6889ZM17.3414 13.0867L28.8424 25.6624L17.3417 38.2373C16.4846 37.0719 15.9768 35.6345 15.9768 34.0802V17.2439C15.9768 15.6896 16.4845 14.2522 17.3414 13.0867ZM51.2032 11.8046L39.0727 25.0696L36.9705 27.3673C36.4271 27.9615 35.684 28.2889 34.8784 28.2892C34.878 28.2892 34.8779 28.2892 34.8775 28.2892C34.0714 28.2892 33.3276 27.9616 32.7834 27.3671L18.5532 11.8069C19.7677 10.8091 21.3209 10.2093 23.0117 10.2093H46.7434C48.3727 10.2093 49.902 10.75 51.1658 11.773C51.1784 11.7833 51.1905 11.7942 51.2032 11.8046ZM38.6977 58.2421H13.295C9.39476 58.2421 6.22168 55.069 6.22168 51.1686V8.83125C6.22168 4.9309 9.39476 1.75781 13.295 1.75781H38.6977C42.4707 1.75781 45.5627 4.72699 45.7607 8.45145H43.9978C43.8023 5.69707 41.5004 3.51551 38.6972 3.51551H13.2956C10.3645 3.51551 7.97996 5.90004 7.97996 8.83113V45.5354C7.97996 46.0208 8.37336 46.4143 8.85887 46.4143C9.34438 46.4143 9.73777 46.0208 9.73777 45.5354V8.83102C9.73777 6.8693 11.3338 5.2732 13.2956 5.2732H38.6972C40.5308 5.2732 42.0444 6.6675 42.2345 8.45133H23.0116C18.1633 8.45133 14.219 12.3956 14.219 17.2439V34.0802C14.219 38.9278 18.1633 42.8716 23.0116 42.8716H27.7018L32.1998 47.3696C32.9151 48.0848 33.8659 48.4787 34.8773 48.4787C35.8889 48.4787 36.8395 48.0847 37.5538 47.3698L42.053 42.8716H42.2551V51.1685C42.2551 53.1304 40.6591 54.7263 38.6973 54.7263H13.2957C11.3339 54.7263 9.73789 53.1304 9.73789 51.1685V49.0509C9.73789 48.5655 9.34449 48.172 8.85898 48.172C8.37348 48.172 7.98008 48.5655 7.98008 49.0509V51.1685C7.98008 54.0996 10.3647 56.4841 13.2957 56.4841H38.6973C41.6284 56.4841 44.0129 54.0996 44.0129 51.1685V42.8716H45.7713V51.1685C45.7712 55.0689 42.5981 58.2421 38.6977 58.2421Z" fill="#2A2A2A"/>
</svg>
