<svg width="28" height="28" viewBox="0 0 28 28" fill="none" xmlns="http://www.w3.org/2000/svg">
<g clip-path="url(#clip0)">
<path d="M27.9435 10.7615C27.8035 10.3308 27.4365 10.0372 26.9855 9.9954L18.425 9.20145L16.7281 5.26099C16.6385 5.05296 16.3973 4.95682 16.1892 5.0465C15.9812 5.13608 15.8852 5.37736 15.9748 5.58534L17.768 9.74947C17.8274 9.88734 17.9574 9.98178 18.1069 9.99562L26.9098 10.812C27.0845 10.8282 27.1454 10.9593 27.1635 11.0148C27.1815 11.0704 27.2093 11.2121 27.0775 11.3279L20.4356 17.1629C20.3227 17.262 20.2731 17.4147 20.3062 17.5612L22.25 26.1856C22.2886 26.3568 22.1828 26.4551 22.1355 26.4895C22.0882 26.5238 21.9621 26.5942 21.8111 26.5045L14.2094 21.9907C14.0804 21.9142 13.9196 21.9142 13.7906 21.9907L6.18892 26.5045C6.03798 26.5943 5.91187 26.5238 5.86457 26.4895C5.81726 26.4551 5.71144 26.3568 5.75 26.1856L6.7534 21.7338C6.80322 21.5128 6.66443 21.2932 6.44349 21.2435C6.22217 21.1937 6.00303 21.3325 5.95321 21.5534L4.94981 26.0053C4.85028 26.4471 5.01603 26.8869 5.38239 27.1531C5.74874 27.4192 6.21828 27.4411 6.6076 27.2098L13.9999 22.8203L21.3923 27.2098C21.5716 27.3163 21.768 27.3691 21.9634 27.3691C22.1922 27.3691 22.4198 27.2967 22.6174 27.1531C22.9838 26.8869 23.1495 26.4472 23.05 26.0053L21.1597 17.6184L27.6188 11.9443C27.9591 11.6454 28.0834 11.1922 27.9435 10.7615Z" fill="#6579BB"/>
<path d="M15.9743 3.51068L15.0245 1.30524C14.8453 0.889287 14.4528 0.630943 13.9999 0.630943C13.5471 0.630943 13.1545 0.889342 12.9753 1.30529L9.57483 9.20151L1.01449 9.99541C0.56359 10.0372 0.196473 10.3308 0.0564728 10.7615C-0.0834725 11.1921 0.0409416 11.6454 0.381207 11.9443L6.84013 17.6184L6.34843 19.8C6.29861 20.021 6.43741 20.2405 6.65835 20.2903C6.68875 20.2971 6.71905 20.3004 6.74891 20.3004C6.93649 20.3004 7.10569 20.171 7.14862 19.9804L7.69386 17.5612C7.72689 17.4146 7.67723 17.2618 7.56447 17.1628L0.922559 11.328C0.790762 11.2123 0.818543 11.0705 0.836645 11.0149C0.854692 10.9594 0.915504 10.8284 1.09023 10.8122L9.89317 9.99574C10.0426 9.9819 10.1726 9.88746 10.232 9.74959L13.7287 1.62976C13.7981 1.46865 13.9415 1.4512 13.9999 1.4512C14.0584 1.4512 14.2018 1.46859 14.2712 1.6297L15.2209 3.83508C15.3106 4.04311 15.5518 4.1392 15.7598 4.04957C15.9678 3.95999 16.0638 3.71871 15.9743 3.51068Z" fill="#6579BB"/>
</g>
<defs>
<clipPath id="clip0">
<rect width="28" height="28" fill="white"/>
</clipPath>
</defs>
</svg>
